<mxfile host="65bd71144e">
    <diagram id="2A5OqUOKwp1WKSFSkj1V" name="Page-1">
        <mxGraphModel dx="792" dy="445" grid="1" gridSize="10" guides="1" tooltips="1" connect="1" arrows="1" fold="1" page="1" pageScale="1" pageWidth="850" pageHeight="1100" math="0" shadow="0">
            <root>
                <mxCell id="0"/>
                <mxCell id="1" parent="0"/>
                <mxCell id="2" value="&lt;table border=&quot;1&quot; width=&quot;100%&quot; height=&quot;100%&quot; cellpadding=&quot;4&quot; style=&quot;width:100%;height:100%;border-collapse:collapse;&quot;&gt;&lt;tbody&gt;&lt;tr&gt;&lt;th align=&quot;center&quot;&gt;Cliente&lt;/th&gt;&lt;/tr&gt;&lt;tr&gt;&lt;td&gt;- nombre: String&lt;br&gt;- identificación: String&lt;br&gt;- celular: String&lt;br&gt;- reservas: List&lt;/td&gt;&lt;/tr&gt;&lt;tr&gt;&lt;td&gt;+ get_nombre() : String&lt;br&gt;+ get_identificación() : String&lt;br&gt;+ agregar_reserva(reserva) : bool&lt;br&gt;+ cancelar_reserva(reserva) : bool&lt;br&gt;+ mostrar_info() : void&lt;br&gt;&lt;/td&gt;&lt;/tr&gt;&lt;/tbody&gt;&lt;/table&gt;" style="text;html=1;whiteSpace=wrap;strokeColor=default;fillColor=none;overflow=fill;strokeWidth=2;" parent="1" vertex="1">
                    <mxGeometry x="80" y="40" width="240" height="200" as="geometry"/>
                </mxCell>
                <mxCell id="3" value="&lt;table border=&quot;1&quot; width=&quot;100%&quot; height=&quot;100%&quot; cellpadding=&quot;4&quot; style=&quot;width:100%;height:100%;border-collapse:collapse;&quot;&gt;&lt;tbody&gt;&lt;tr&gt;&lt;th align=&quot;center&quot;&gt;Cancha&lt;/th&gt;&lt;/tr&gt;&lt;tr&gt;&lt;td&gt;- nombre: String&lt;br&gt;- tipo: String&lt;br&gt;- costo_hora: int&lt;br&gt;- horarios_disponibles: List&lt;br&gt;&lt;/td&gt;&lt;/tr&gt;&lt;tr&gt;&lt;td&gt;+ get_nombre(): String&lt;br&gt;+ get_tipo(): String&lt;br&gt;+ get_costo(): int&lt;br&gt;+ mostrar_horarios(): void&lt;br&gt;+ reservar_horario(hora: String): bool&lt;br&gt;+ cancelar_reserva(hora: String): bool&lt;br&gt;+ mostrar_info(): void&lt;/td&gt;&lt;/tr&gt;&lt;/tbody&gt;&lt;/table&gt;" style="text;html=1;whiteSpace=wrap;strokeColor=default;fillColor=none;overflow=fill;strokeWidth=2;" parent="1" vertex="1">
                    <mxGeometry x="450" y="40" width="340" height="200" as="geometry"/>
                </mxCell>
                <mxCell id="4" value="&lt;table border=&quot;1&quot; width=&quot;100%&quot; height=&quot;100%&quot; cellpadding=&quot;4&quot; style=&quot;width:100%;height:100%;border-collapse:collapse;&quot;&gt;&lt;tbody&gt;&lt;tr&gt;&lt;th align=&quot;center&quot;&gt;Reserva&lt;/th&gt;&lt;/tr&gt;&lt;tr&gt;&lt;td&gt;- id: String&amp;nbsp;&lt;br&gt;- cliente: Cliente&lt;br&gt;- cancha: Cancha&lt;br&gt;&lt;span style=&quot;color: rgb(63, 63, 63);&quot;&gt;- fecha: datetime&lt;/span&gt;&lt;br&gt;- hora: String&lt;br&gt;&lt;/td&gt;&lt;/tr&gt;&lt;tr&gt;&lt;td&gt;+ get_id(): String&lt;br&gt;+ get_info(): String&lt;br&gt;+ cancelar(): bool&lt;br&gt;+ mostrar_info(): void&lt;/td&gt;&lt;/tr&gt;&lt;/tbody&gt;&lt;/table&gt;" style="text;html=1;whiteSpace=wrap;strokeColor=default;fillColor=none;overflow=fill;strokeWidth=2;" parent="1" vertex="1">
                    <mxGeometry x="80" y="270" width="240" height="180" as="geometry"/>
                </mxCell>
                <mxCell id="5" value="&lt;table border=&quot;1&quot; width=&quot;100%&quot; height=&quot;100%&quot; cellpadding=&quot;4&quot; style=&quot;width:100%;height:100%;border-collapse:collapse;&quot;&gt;&lt;tbody&gt;&lt;tr&gt;&lt;th align=&quot;center&quot;&gt;CanchaSintética&lt;/th&gt;&lt;/tr&gt;&lt;tr&gt;&lt;td&gt;(sin atributos adicionales)&lt;/td&gt;&lt;/tr&gt;&lt;tr&gt;&lt;td&gt;+ mostrar_info(): void // Sobreescritura de método&lt;/td&gt;&lt;/tr&gt;&lt;/tbody&gt;&lt;/table&gt;" style="text;html=1;whiteSpace=wrap;strokeColor=default;fillColor=none;overflow=fill;strokeWidth=2;" vertex="1" parent="1">
                    <mxGeometry x="360" y="330" width="240" height="120" as="geometry"/>
                </mxCell>
                <mxCell id="6" value="&lt;table border=&quot;1&quot; width=&quot;100%&quot; height=&quot;100%&quot; cellpadding=&quot;4&quot; style=&quot;width:100%;height:100%;border-collapse:collapse;&quot;&gt;&lt;tbody&gt;&lt;tr&gt;&lt;th align=&quot;center&quot;&gt;CanchaVoléyPlaya&lt;/th&gt;&lt;/tr&gt;&lt;tr&gt;&lt;td&gt;(sin atributos adicionales)&lt;/td&gt;&lt;/tr&gt;&lt;tr&gt;&lt;td&gt;+ mostrar_info(): void // Sobreescritura de método&lt;/td&gt;&lt;/tr&gt;&lt;/tbody&gt;&lt;/table&gt;" style="text;html=1;whiteSpace=wrap;strokeColor=default;fillColor=none;overflow=fill;strokeWidth=2;" vertex="1" parent="1">
                    <mxGeometry x="620" y="330" width="240" height="120" as="geometry"/>
                </mxCell>
                <mxCell id="9" value="" style="shape=image;verticalLabelPosition=bottom;labelBackgroundColor=default;verticalAlign=top;aspect=fixed;imageAspect=0;image=data:image/png,iVBORw0KGgoAAAANSUhEUgAAAyAAAAFWCAYAAACRlPmdAAABHGlDQ1BpY2MAACiRY2BgMnB0cXJlEmBgyM0rKQpyd1KIiIxSYD/PwMbAzAAGicnFBY4BAT4gdl5+XioDBvh2jYERRF/WBZmFKY8XcCUXFJUA6T9AbJSSWpzMwMBoAGRnl5cUAMUZ5wDZIknZYPYGELsoJMgZyD4CZPOlQ9hXQOwkCPsJiF0E9ASQ/QWkPh3MZuIAmwNhy4DYJakVIHsZnPMLKosy0zNKFAwtLS0VHFPyk1IVgiuLS1JzixU885LziwryixJLUlOAaiHuAwNBiEJQiGkANVpokuhvggAUDxDW50Bw+DKKnUGIIUByaVEZlMnIZEyYjzBjjgQDg/9SBgaWPwgxk14GhgU6DAz8UxFiaoYMDAL6DAz75gAAwMZP/aCJEEUAAAAEc0JJVAgICAh8CGSIAAAgAElEQVR4nO3de2CU5YHv8d87M5lJIkgRqOUSQAgXgwETEiIQUC4CwSiiWGt37bptV3fdc7qttdvWdWsvbmv3uO22bt32tB5dtbbQRQETgsgtkHAJEMjkCgkhRG4BJEIgyVzeec8f9B2HiLXdmndI8v38k5CEdp5EkvnmuRmWZQkAAAAAnOCK9wMAAAAA0HcQIAAAAAAcQ4AAAAAAcAwBAgAAAMAxBAgAAAAAxxAgAAAAABxDgAAAAABwDAECAAAAwDEECAAAAADHECAAAAAAHEOAAAAAAHAMAQIAAADAMQQIAAAAAMcQIAAAAAAcQ4AAAAAAcAwBAgAAAMAxBAgAAAAAxxAgAAAAABxDgAAAAABwDAECAAAAwDEECAAAAADHECAAAAAAHEOAAAAAAHAMAQIAAADAMQQIAAAAAMcQIAAAAAAcQ4AAAAAAcAwBAgAAAMAxBAgAAAAAxxAgAAAAABxDgAAAAABwDAECAAAAwDEECAAAAADHECAAAAAAHEOAAAAAAHAMAQIAAADAMQQIAAAAAMcQIAAAAAAcQ4AAAAAAcAwBAgAAAMAxBAgAAAAAxxAgAAAAABxDgAAAAABwDAECAAAAwDEECAAAAADHECAAAAAAHEOAAAAAAHAMAQIAAADAMQQIAAAAAMcQIAAAAAAcQ4AAAAAAcAwBAgAAAMAxBAgAAAAAxxAgAAAAABxDgAAAAABwDAECAAAAwDEECAAAAADHECAAAAAAHEOAAAAAAHAMAQIAAADAMQQIAAAAAMcQIAAAAAAcQ4AAAAAAcAwBAgAAAMAxBAgAAAAAxxAgAAAAABxDgAAAAABwDAECAAAAwDEECAAAAADHECAAAAAAHEOAAAAAAHAMAQIAAADAMQQIAAAAAMcQIAAAAAAcQ4AAAAAAcAwBAgAAAMAxBAgAAAAAxxAgAAAAABxDgAAAAABwDAECAAAAwDEECAAAAADHECAAAAAAHEOAAAAAAHAMAQIAAADAMQQIAAAAAMcQIAAAAAAcQ4AAAAAAcAwBAgAAAMAxBAgAAAAAxxAgAAAAABxDgAAAAABwDAECAAAAwDEECAAAAADHECAAAAAAHEOAAAAAAHAMAQIAAADAMQQIAAAAAMcQIAAAAAAcQ4AAAAAAcAwBAgAAAMAxBAgAAAAAxxAgAAAAABzjifcDwCUVY5bE+yEAANAjGau+d311dXVeZmbmys68f2yL9+NB95rSuDreDwF/JmZAAABAj+b3+/OffvrpFz//+c+fX/PXWb9qe/lrk+P9mAB8OGZAAABAj9bW1vapmpoaSdKFCxe+4Pf78xY+ceez48ePLx7w0L+Vx/nhAeiCAAEAAD1aQkJCu2EYsixLdXV18vv9w1auXPmjCRMm6M5ld66+7777Hvfe/3RDvB8ngEtYggUAAHq0SCTiTkhIkNfrVUJCgjwejwzDUENDg15++eUlX/rSl+p/PHtg1e4n7vxK/w0/dsf78QJ9HTMgAACgRzNN0xcMBuVyuTR58mQtWrRIjY2NKisrU1NTk86cOaPy8vJJJSUlP9q3b989c/71wedSU1NLjHueOh7vxw70RQQIAADo0ZKSklpdLpcsy1JaWpqeeOIJBYNBLV++XMuXL9fevXt17tw5HTlyRC+88ELuiy++mDt9+nQteGTBc/n5+d8N3/nEmXiPAehLCBAAANDjRSKR6MukpCQlJSXpjjvuUEZGhhobG7V7924VFxfL7/ero6NDJSUlOnLkyP/eunXrFyYtm/R2dnb28vFff/U3cR4G0CcQIAAAoEczDCP60rIsdXZ2SpKGDBmi4cOHKysrS7NmzdLMmTNVWFiouro6HThwQMeOHdOhQ4eS33rrrSWZmZlLFn9u8YLZs2f/IiUlxd++8PH2eI4J6M0IEAAA0CtYliWPxyOfzyfDMBQIBKJvHzp0qO644w7Nnj1bp0+f1tq1a/Xqq6+qsrJS4XBYu3fvVmVl5UMvvPDCQ5mZma33fvveb0759spfxHlIQK9EgAAAgF7HsiyFw2ElJCTINE3Zp2QNGjRIAwYM0D333KO0tDQ1NTWprKxMpaWlOnLkiI4ePaqjR48ObGho+PnM+TO/MHbs2J05OTmvDPz8j3fHe0xAb0GAAACAXscwDLlcLrlcLkUiEYXDYVmWFf3z6NGjNXr0aEnS3Llz9eabb2rbtm1qbGxUS0uL6urqVFNTky0pOy8v7+H7n7r/sQkTJmxK+uwP6uI6MKAXIEAAAECvZFmWJMnjufR0xzTNaJjYwuGwRo8erUceeUSf+9znVFVVpYKCAq1du1aNjY0KBoNat26db+fOnT8bMWKEsudk+x944IG/H/LwcyVxGRTQCxAgAACgV7IsS5FIJBocbvelOwhdLpc6OjqUlJQUjROPx6N+/fppzpw5SklJ0W233aby8nJVVVWprKxMR48eVWtrq+rr6yfX1NRsy1iUUZKWlvb2Lbfc8krCp793OG6DBHogAgQAAPRKhmHIMAxFIhEZhiHTNKNLsJKSkqJLs7xer8LhsAKBgPr166fU1FSNHTtWCxcuVFVVlQoLC7Vp0ybV19frvffe0+7du7Vz587clJSU3FmzZj246DvLns3Ozn4tsPjrbfEeM9ATECAAAKBXsgPEPqbXnu2QFN0PYseHvUldev9OEa/XqylTpiglJUXLli1TTU2NioqKtGbNGp0+fVrvvPOOXn/99dTt27f/fNSoUT/PWJKx/q677nrqui/8+07nRwv0HAQIAADolezwsCwruh/E5XJF7wuxX7rdbhmGoXA4rHA4rMTERAWDQVmWJZ/Pp8GDB2vIkCEaO3asRowYoVmzZqmmpka7d+/Wnj171NTUpKamJtXV1S2or6/Pnfrg1JVpaWlv33TTTUXcsg58EAECAAB6PZfLFY2Q2FkR+6V0aYbEniXxer2yLEumaV62mT0nJ0c5OTnq6OhQcXGxVq1apV27dunIkSM6deqUCgsLk9etW/fgkCFDHvzLv/zLgkW//NIPB//NT9mwDsQgQAAAAD6EHSt2hNgvExMTlZubqylTpqilpUW7du1SYWGhtm/frnfffVetra362c9+ll9QUJCflpHWkpub+1JeXt6/sE8EIEAAAACuKHamxF7GZe8PMQxD/fr1U79+/XT99ddr+PDhSktL065du1RbW6u9e/eqrq5OBw8eVF1d3fW7d+/+ek1Nze0Zjy98/YYbbtg9ceLEjefnfdmM5/iAeCFAAAAAPkLsUq3YPSX2SVpDhgzRkCFDNG3aNJ09e1Y7duzQa6+9pp07d+rs2bNqaWnRr371q0yXy5WZnZ2tRYsWvZS/4p+/yxG+6IsIEAAAgI/Qdf+IYRgKhUIyDCN6elY4HJbb7dbQoUM1b948ZWRkqKmpSbt27dK6detUWlqqcDisiooK1dfXP7R+/fqHxs8eXz1r1qwX5s6d+1NmRNBXECAAAAB/QGx8xEpISIhuUrdvWI9EIjJNU/3799eAAQM0evRoTZkyRRMnTtS0adNUX1+vPXv26OTJk9qxY4fKysomlZWV/aiysnLR9B989tWxY8eWMCuC3o4AAQAA+AO6hockBQIB+Xw+ud1uRSIRhUKh6Cla9oWH0qVZkU984hPKz8/X3XffraNHj2rFihUqKCjQvn379N5776mhoUH19fULfv7zny/Izs7WXz3xV49lf//NHzs9TsApBAgAAMCfyOfzSbr8QkOby+WKBok9M2IfAzxs2DA9+OCDmj9/vurq6rRv3z69+eabqq6uVjgcVllZmY4dO/ajMWPG/CgzM3P13Llzfzr00f/cFK9xAt2BAAEAAPgfutLsiGEYSkhIkCS53W6Zphk9Pcvtdkc3rKenpysrK0sTJ07Ujh07VFtbq0OHDunw4cM6fPiwSktLl+zYsWNJ3hfznp86derKlJSUfaH8b7Y6OkCgGxAgAAAA3cSeAYn9s3Tp9CzDMDR69GiNGjVK9913nw4cOKA33nhDRUVF2rt3rzo7O1VSUqLt27c/OmzYsEdnz57dcO+zf/WNsY//18p4jQf4OBAgAAAAHzN7Y7p0KTrcbnd0M7uky6JEkpKTk5WWlqaBAwdq4cKFqq6u1s6dO1VcXKzDhw/r6NGjWrNmTWpNTc1/j88e35yRkbF62rRprw364k92Ojow4GNAgAAAAHzMPmxpli0QCET3iFiWJdM05fP5NHr0aI0ePVozZ87U9OnTlZaWpu3bt6uhoUHvvPOO9u/fr/3794984403/vd9992XN+eJO5+/8cYbN/Z78F/9To4P+HMQIAAAAA6zN7Gb5qWrP9xu9wc+Zvz48UpNTdXDDz8sv9+vV199VYWFhWppaVEkEtFrr72WunLlyh+lpqZqzh1ziu+7777HBjz0b+WODgT4HyBAAAAAutGV7hGxj+q1wyMcDkc3qtvLs+xI8Xg8mjJlij71qU9p4cKFqq+v186dO1VUVKRgMKjq6mo1NTXdWllZuXfC7RN2Z2ZmrpwxY8ZLkSVPtjg5TuCPRYAAAAB0oystx3K5XJe93eP54FOyQCCgSCQij8ej/v37q3///kpNTVVnZ6eysrKUkpKihoYGNTQ06MiRI9q6dauKi4uzR44cmX3HHXfkz/7+A/83IyNjVWfeP7Z16wCBPxEBAgAA4LDY+Og6QxKJRKJ3i9hvC4VCcrvdcrlcSkxMVG5urnJycnT06FHt27dPBQUF2rBhg06dOqXm5ma9+OKLuatWrcodM2aM5n9u/kt33333Pxn3PHXc+ZECH0SAAAAAxFHXGRJ7CZa9QV1S9BStcDgc/Zjk5GRNmDBBw4YN05gxY5SXl6fq6mpt27ZNO3bs0IkTJ3Tq1CkdOnToof379y+5+XMZq1NTU0tmzJjxUtv8r5jOjhJ4HwECAABwlbIjxDCMy4LE5XIpHA7LNE3169dP06ZNU3Z2to4fP64ZM2Zo1apVqqioUFNTk959912tXr164OrVqx8aN27cQ5/+9Kfnzfnll54fM2bMjvPzvkyIwHEECAAAwFUsdobEfj0cDkeXZMXeNzJ8+HANHDhQ06dP18mTJ7Vt2za9/PLL2rt3r0zTVGNjo37yk588sHz58gcmT57cMu/xhc/NmTPn+eAd3+CGdTiGAAEAAOhh3G73ZXeIWJYV3bDu8/mUlJSka6+9Vtdff70mTJigffv2qaqqSjt37tTBgwftzevX19TUPL1///4lE/5+dnFaWtrbw/7+5+vjPTb0fgQIAABADxO7Yd2OkViWZcntdmvw4MG69dZbNXv2bJ08eVKFhYUqKChQQ0ODjh8/roMHD6quri5bUnZOTs7jn/3yZ7+bk5Pzm8QHvl8Xh2GhjyBAAAAAegh7D4hpmvJ4PJctwQoGg3K5XNH9IZKUkJAQ3dQ+dOhQfeYzn1F+fr5qamq0fft2vfnmm/L7/QoGgyovL1dTU9O3hg4d+q2Zi2cWT58+/ZWb/nnFC/EZKXozAgQAAKCHsGPDvjfEPrJXkrxer6RLkWK/Ll2KFXuZVv/+/XXttddq2LBhGjt2rMaNG6fq6mrV1dWprKxM77zzjlpbW1VZWXlrWVnZrbPvmX33lClTCsaNG1ec9NkfMCuCjwUBAgAA0MPYJ2PZN6lHIpHoHhB7P4jL5YreuB4bJ/ZMyahRo3TDDTfIsixVV1dr3bp1Wrdunfx+v86dO6e9e/dq9+7d+QMHDszPzc1tu+db93wjNzf3hYsLvhqI59jR8xEgAAAAPUzsyVeSokuv7Ndj7w+R3l+6JV1altX1fystLU1Dhw7V/PnzdeLECRUVFWnNmjVqbm5Wa2urioqK+tfU1PxszJgxP0u7K239vHnznhv5D78q6PaBolciQAAAAPoYwzAUiUQUCoUkXYqSQYMGadCgQUpPT1dKSoomTZqkmpoaVVVVqbKyUo2NjTp06JA2bNiwoLKycsHCv13440mTJr09ZsyYnRzjiz8FAQIAANDLdD0VqyvTNGUYRnQ2pOtdI+PGjdNNN90k0zRVVlamX//61youLtaxY8d04cIFbdq0SVu3bv3KoEGDvrJgwYK6h371D3896Is/2dmtg0KvQYAAAAD0MbGnZ1mWpXA4HF2mZRiGfD5f9GMzMjI0evRoPfjggyovL9eWLVv09ttvq7W1VS0tLVqzZs3EioqKHaPTR7dOmzZtxeLFi7/vuvfbzXEZGHoEAgQAAKCP6TpD0vUuEXujeiAQkM/n09ChQzV06FClpaVp6tSpys7OVmVlpaqrq3Xw4EH5/X75/f6B+/fvf8Tv9+ctfHLJsyNHjtw35OHnSpweG65+BAgAAEAfE4lEJH1wJiQSiciyLCUkJMgwjOhxv+FwWIZhqH///srKytK0adN0/PhxlZeX64033tCGDRt07NgxNTc36+TJkyNXrFjx05tvvln5f5H/m4ULFz7T/3P/xx+3weKqQ4AAAAD0MfaJWbGnY0kfPDXLPu7X4/FEj/q1j/YdNmyYBgwYoDFjxmjp0qU6cOCA1q5dq02bNskwDPn9fh09evSBzZs3PzB50eSSzMzM16dPn/5K+M4nzjg7WlxtCBAAAIA+yI4Lmz37YRiGDMOIblSX3l+yFYlE5Ha71dHRIY/Ho2uuuUZpaWlKS0vTrFmzNHnyZGVnZ6uqqkoHDx5UY2OjSktLtXPnztwbbrghd/78+Z+e88xf/HT8+PHFxj1PHY/LwBF3BAgAAOjRTNN0S4pevPdRJ0Dhkq6fJ3tWxGbPhsS+3/6YpKQkSZfPoPTv319z587VnDlz1NTUpJKSEv32t79VSUmJLl68qEOHDqm5ufmWX//617ekp6dr6aNLn83Pz/9uYPHX27pjfLh6ESAAAKBHc7lcpn35nh0hXZ88o/sZhhGdQUlNTVX//v2Vlpam5uZm7d27Vxs2bFBVVZXa2tq0a9cuHT169PEtW7Y8OvGeiZtuu+2251O+9MuieI8BziBAriLW698Z1t7ePtDtdpuGYYQty/J0XZv5cTNN0+vxeIJer7fd7XYHfn8xkTsSiXgsy5Lb7Q536wOIM5/P1/b7H1ym/TbLsqI/tQzDMK/8N3uGUCiULEmGYYTtHwyWZXm8Xm/7hdsfC8T78QHAx8Htdpv2pmrDMIiPOLJ/1pimqeuuu07XX3+9pk2bpuzsbN10003auHGjqqqq1NzcrOPHj6u5uTm5qKgof/fu3fm3f/72X2RlZa0YOXLkvlD+N7nYsBcjQK4SdT/47IO/+trXXvb7/TJNM3o7qX36RHcxTVOJiYnq16+fkpKS5PV6L5uCtb+h9yaxU85DhgyR2+2Wx+O57BQQe/1rdwdgd/N6vQqHw4pEItHxuN1u9evXr+7axSktHo+nV0dIJBLxuFyu8O+fkASTkpLarrnmmjMJCQkBqecH5h/DMAwlJSW1DhgwoCUpKanV/sVGb1ii8lH/Pr1eb3tSUlJbv379zvh8vvOSZJqmLxKJ2Mt1evTX3zAMMxKJuH///cr8/S+P3G632/R6ve2RJU+2xPsxOuXChQuDk5KS1NHRIdPs0V/WHiv2Z6Z9y7p9yaEkDR8+XJ/+9Ke1YMECHT16VJs3b9aqVatUWlqqSCSirVu3au/evY8MGTLkkZycnObb/+muf587d+5Pz8/7Ml/QXogAuUpcuHBh8LvvvqtTp05Jev83OOFw905AuFwutbe3q7W19bLj9/oKn88nt9stt9ste/q+NwVI7NfT7XZH/+zz+SYmJydP7A1PQv8QezmG/Tnwer1KTEyU2+3u8V/bP4b9W0i3263k5OTLbjy2l6n0Zm63WwkJCfL5fB848Sf2v4ueyn6SZ3+/sk8o+v24z1wz89pefdJQZ2fntddee+2ZhISE9qpf//qWzs5OeTye6IV6vf3729Wk60Z1y7KiXwv7Z2k4HFZCQoKGDBmiIUOGaPDgwZo6dapqamq0f/9+FRcX6/Dhw2pqatKxY8dGHjp06Edbtmx5OO1vbtmUk5PzCres9y4EyFXC5XKFY2cbDMOI/sPtTh82w9FbnoB/lECgV08AXCY2sC5evKjz5893e+DGW+yY+6LYf8P2E/DeOKv5P9Ebvr/9oTEYhjHYsqzBH/X3e7Lfj31YQkJCNDrC4bA6Ojp6/Nh6sit97j0ejzwejyzLUiAQUDAYVEpKilJSUnTrrbfq4MGDuuWWW7R161ZVVlbK7/drz549Ki8vn3jNNddMzMrKejT/f+X/cNq0aa9xn0jvQIBcJVwul3mlNavd/QPSPtc79jf/9v9vT//h/MeI/a1o1/H2ticoXZ949vb4kC4fc9cY6QtPULouh7Bft9/X2z8HH/Y17y3f37p+z46dCfljxtfTPwdut1umaSoUCkm69PXuuuwH3e/Dvo+Ew+HLLjGULn2NfD6ffD7fZRchjhs3TuPHj9fSpUu1ZcsWPfPMM9q1a5ck6eLFi9q+fbtKS0u/PmLEiK9/8W+++PwU6e8dGBq6EQFylcjIyFj56KOP+k6ePDkhEol4DMMIu91u0z5asLtYluUJBoPJnZ2d/UOhkNeyLI/L5er1z0ztH7znzp0bHolEJnU9+1y6/ElbT3WlJ5mRSESdnZ0KBAI9fnwfJWbjvSzLUjAYjK4R7w2B+VHswA4Gg7p48aKCwWB0+VVv8FFfv2AwqFAopEAgEP2a21FiL1XqySKRyAeWjtpL60KhkDo6OuL9ELuVvYQwISFBoVAouhzNXvrT3Xso8eFiDwKw/9u0g7GzszO6PFJSdJlobW2tGhoatGfPHp04cSIalNKl433HjBmjrKyskszMzJVxGxg+NvzrvEpYd/9zS5b043g/jr7mmvX/5jNN02uapkeKLj0LW5blkXr+bwiv9JupUCjkbWtru/7ChQuDe/r4PoplWR632x2QLp0I1t7e/on29vaBwWAw2TRNt9vt7tGbID7q62d//QOBQPL58+evb29vHxiJRNw9ffP1H6uzs7N/R0fHJy5evDgwHA77DMMI22OPPe2uJzMMw7Qsyx1z4IIZCoWSA4FA8unTp6+P+bh4PsxuYd/GnZSUpCNHjujAgQNyuVyOHODSl1xp1tiOithfcsXOaNiH6SQkJER/sWdHob0f0TRNnTt3Tq2traqpqdHy5ctVUFCgc+fOyeVyyev1asCAAUpJSdHcuXNXL1u27HHv/U83qOh5qXGh858IfKz4F4o+7eKCrwYk9Z2NIL/XT2rpF+8HAaCbDYz3A+h2yW89m2wYhllUVPTEV7/61W+FQiH5fL54P6xe5UrxeqUY6bqCwN6bYwehPeNhz0Du27dPBQUFKi0tVWNjo44fP65AICC3262BAwcqPz+/esGCBc9OmzbtNxdufyyg3z3tzIDhCAIEAAD0SO0LH2+XpBH/9pDf3guSkJDQJ/Y4xVPsPip7Sae9JC72HpCEhITo5vOOjg6dOHFCfr9fNTU1qqio0Pbt23Xs2DFZlqVrr71WM2bM0OTJk9enp6evS0tLW5/8F89UX9Bv4zZOdB8CBAAA9Gjnzp27XpISExNlmiYB8jH4sAM77PjoupcsdtmbaZryeDzRfVgXL16U3+/XmjVrtH79eh06dCgaKQMHDtSIESOUm5tbsnTp0ic/+ch/FGvNYUlrun2MiB8CBAAA9GiBQKC/pOgBG/jz/aGA63rCYjAYVDgcVmJiohISEqIbzg8cOKAtW7aopKREtbW1OnnypFpbW6OnYi1atChwzz33PDl58uSCxAe+X6d1/+HI2BB/BAgAAOjREhMT2+zTr/r3799rTnq7GtlhEgqF5HK55Ha7lZSUFH1/U1OTDhw4oBMnTqi0tFRbt25VY2NjNDpuuukmZWZmVqenpxdNnTp15XVf+PedUkFcxoL4IUAAAECPZhiGaZ/CFA6HFQwG5fV64/yoeo+u9+nYm8ylSzMgoVBInZ2dampq0tq1a1VYWKjS0tLo309MTNTw4cOVmZl5ZunSpU9Ofuq/f6Ft2yRti8dwcBUgQAAAQI8WCoWSY4+lJj7+fLGfz9jLLWPvm/F4PDp9+rQ2b96sjRs3qra2VocPH9bx48clXfo6TJkyRfn5+S/MnDnzpeHDh1cEFn+9LS4DwlWFAAEAAD2ax+MJxD5BZhP6Hxa7f+NKF3KGw2G5XK7LLgO0N5kHg0FduHBBjY2NamhokN/vV0FBgfbv3x/9uFGjRik9Pb1twoQJxdnZ2SsmfvO1V/TS3r535j0+FAECAADQi3UNMvv12PgIh8Nyu93R2+QlRU8UszeVRyIRvfPOO9qyZYvWrFmjHTt26PTp09F9IB6PR1OmTNH999//1Lx5854L3vGNVr1e7+xg0SMQIAAAAL1Q7DKqK80Kxd6d4vF4ZJqmQqGQLMuS1+uNBsq7776rrVu3qqysTAcPHlRlZaUOHz4cnSlJTU3VggULNuXm5v5q3Lhxpa57v90c/NHbzg0UPQ4BAgAA0MvExseVlqNFIpHopY32TEckEpHX65XL5VJnZ6fq6+vV0NCgqqoqbdq0SZs3b1Y4HJbP59PAgQOVmpqqsWPH1s2ePfuFaT8oeFYFR5wcInowAgQAAKCXio0P+zSr2NkQwzBkmmZ04344HNZ7772n4uJi/e53v9O2bduit5Xbp1+lpqbqzjvvXHnfffc95l72nWaVcowu/jQECAAAQC90pZkPO0BM04zu+fB6vers7NT+/fu1efNmHTx4UFVVVaqpqVEwGJTL5dLgwYN12223Nefm5r4wceLETUMefq5Ey78Th1GhNyBAAAAAehk7Pq60D8TeaB4KhXTmzBkdO3ZMfr9fhYWF2rp1q86cOSOXyyWfz6exY8fqxhtvPJORkbE6Ly/vGe/9TzdI7O/An4cAAQAA6IVil1xJ718iaBiGzp07p9raWq1cuVKFhYV65513FAgEohvTU1JSdNddd22aP3/+j0d9+YUCVeyVXtobz+GgFyFAAAAArlJ2PHSNCElXvPE9GAzK4/EoEokoGH81/awAAA8ASURBVAwqKSlJLpcr+v7q6mqVlJSotrZWFRUV8vv9Onv2rCTpuuuuU05OTuCWW255dcqUKW+OGTNmZ2TJky1OjBN9CwECAABwlYldLiVdeT9HQkJC9HX7SFw7SEzTVHJysiKRiE6dOqWWlhYdPHhQW7du1dq1a9XY2CjLspScnKzU1FSNHDlS6enp6xctWvTDoY/+5yZpryLODBV9EAECAABwlYndwxGJRD5wmpX90r40MBwOyzAM+Xw+dXR0KCkpSZFIRPv379fatWtVWlqq2tpanThxQsFgUJI0aNAgzZw5szU/P//7s2fP/kVn3j+2ac1/OjxS9EUECAAAwFUkdrmV/TJ2NsT+GNM0o8uw7Ps7JOns2bPavXu3ysvLVVtbqx07dujYsWOSJJ/Pp5kzZ2rGjBmrx48fX5yVlbXcuOep450/4ChdOIcAAQAAuAp82IlVXWdD7EsEXS5X9BLBQCCgM2fOqL6+Xtu2bdPq1atVUVERnT257rrrlJqaqvHjx9fNnz//uZu/8/rz0gFJb8ZptOjLCBAAAIA4i40PSZdtHLcjw+VyRYPEnvnw+Xw6evSoCgoKtH79eh08eFDHjx9XW1ubIpGIPB6PZs2apcWLFz87Y8aMl675yx9Wq/R1p4cHXIYAAQAAuMqYpinp/TCx93rYbzt//rwqKiqiFwbu3r1b1dXVCgaDcrvdSktLU1ZWln/SpEnrJ0+eXPDJR/6jWM9vi8tYgK4IEAAAgDjqOvshKTrbYb/fPla3tbVVra2t2rBhg1avXq2dO3eqvb1dhmEoKSlJKSkpSk9PP7N48eIfzp0797kLtz8WkLY6PSTgDyJAAAAAukEkEonu0zAMI7qsyt7fYb8/dnN5KBSKnm4Vuw+ktbVVb731lgoLC9XU1KSGhga1trZGZzwmTpyoJUuWrFiwYMGzw4YNq25f+Hj7BTaW4ypFgAAAAHzMTNOU2+2WJLnd7uipVbF7OewgCYVCCofD8nq90bs9wuGw2tvb1djYqMrKSlVUVKi0tFQVFRXq6OiQ2+3Wpz71KU2ePDlw8803r05PTy/Kyspa0b7w8fb2uI0a+OMQIAAAAN0gEolEZzFcLlc0SGyWZcmyLCUkJERnPCzL0sWLF3X69Glt375dv/vd71RSUqLW1lZFIhH5fD4NHjxYEyZM0Lx58165//77/yGU/81W/bZa7fptnEYK/GkIEAAAgI+ZHRux+zvsI3SlS7Me0qW9Hj6fT4Zh6MKFC9q9e7c2btyo0tJSnTp1SsePH9f58+dlGIZSUlK0YMGC8ry8vB9OmjSpKLD4622hV/Y7Pzjgz0SAAAAAfAxiYyMQCCgxMTG65Mo0TYXDYfl8Pknvn2oVCoVUU1Oj+vp6NTQ0aNu2bdqwYYMCgYDC4bCSk5N1yy23KDMzs3jSpElv5+TkvOJe9p3mQFxGCHw8CBAAAIA/U9eTrBITEy/7s2EY0fgIBoOyLEstLS3y+/0qLCzUpk2b1NjYGI0UwzCUlpamhQsXFi1duvTJa//q2XKtfUfSOqeGBHQbAgQAAOBjFg6HFYlEFAqFlJycLJfLJcuyFAwGdeDAAW3cuFHl5eWqra1VQ0ODzp07J0kaPHiwcnNzz+Tn538/JSWl/Pq//VmxVj0b59EAHy8CBAAA4GPmdrvl8Xiip1odPXpUhw8fVn19vTZv3qx169bpzJkzMgxDXq9X6enpSk9Pbxg/fnxJXl7ev/g+8y8NcR4C0G0IEAAAgCuIRCLReziuxDTN6JG6sXd2hEIhJSQkRDeaV1dXa/ny5SosLNTBgwcVCFzawZGQkKDBgwdrxowZLQ888MCXUr/28grtKJf+q9yxMQLxQIAAAIA+K3bvxoeFRtePtcMj9m12gEiXwuLw4cPatm2bysrKVFVVpdraWp0+fVqWZcnr9WrevHmB6dOnvzp16tQVI0eOLDfv+qcz3TE+4GpEgAAAAOjyiLDZf7bv9LCXVtmzI/bHuFwunTp1So2NjTp58qS2b9+ut99+W1VVVTJNU0lJSRo5cqQmTJhg3njjjRtvu+2252947MXVenGPTMdHCsQXAQIAAPose/nUh73PNM3o0qrYWQ/7denSkbvNzc3auHGj3njjDZWXl+v8+fMKBoOSpGuuuUY5OTn6zGc+87W5c+c+d+H2xwJac7j7BwdcpQgQAADQp11p6VUgEJDH45Hb7VYkElEgEJDL5bps9uPYsWPat2+fysvLVVlZqYqKCh0+fDgaNBkZGVq4cOHKjIyMlWPHjt3pue+7hy/8oMDp4QFXHQIEAAD0eV1nQew7OyzLkmVZl91W3tLSohMnTmjLli1atWqV9u/fL9M05fF4NHz4cA0dOlTjx49vuP32239883def17La+IxJOCqRYAAAIA+KTY6ugZIKBSSYRhyu91yu92SpJMnT2rt2rVau3atysvLdfbsWbW1tSkSiSghIUETJ07UsmXLXsjLy3vGe//TDdr+uqPjAXoKAgQAAPQ5sadXxb60eb1eSdJ7772niooK7dmzRzU1Ndq7d6/8fn/074wePVq33XZbdVZW1ooJEyZsGvLwcyV6aa+DIwF6HgIEAAD0SpFI5LLX7b0eXY/Ojd0DYlmWIpGITpw4oZMnT6q8vFzLly/X5s2bZVmWTNPUgAED9MlPflJpaWmtubm5L+Tl5f0wfOcTZ6T1zg4Q6KEIEAAA0OPFnmYVezyu/TL2GF07RuwTrqRLgeL1etXW1qatW7fqrbfe0o4dO3TkyBF1dHRIunT/x/jx47V06dKVc+fOfW7cuHEl5+d92Qw/vy0OIwZ6LgIEAAD0OuFwWOFwWNL7Mx2RSOQDIeLxeBQMBuX3++X3+1VfX699+/Zp27Ztam9vlyQNHDhQ8+bNa50yZUpBRkbG6tTU1JLIkidbzsdzgEAPRoAAAIAeL3ZZlWVZ8ng8l51k5XK5LrvPIxwOq62tTS0tLdq7d6+Kioq0ZcsWHTt2TJKUmJioESNGaMSIEZozZ86K+++//yta+q3jerVCkQ99FAD+GAQIAADo0bqeZhWJROR2uxUIBBQOh2VZlpKTky/b61FaWqr169errKxMBw4c0NmzZxUIBCRJgwYNUl5eXt2yZcu+kZ6eXtA2/yumfvstx8cF9FYECAAA6FUMw1BHR4fcbreSk5Ojbz9w4IAqKirU3NysPXv2aOPGjXr33XdlWZYSExM1depUTZs2bdNNN91UlJ2dvcJ177eb2+I4DqC3IkAAAECPFjuz4XK55HK5lJSUpEAgoM7OTp06dUoNDQ0qKipSQUGB6urqoh8/ePBgjRo1Sunp6dX33nvv11K+9MsiFRyRVBiHkQB9AwECAAB6NMMwTDtCXC6XpEsnVlVVVWn79u3aunWrDh06pKamJr333nsyDENer1eLFi1qnTNnzvPTp09/yfeZf2lQ8S/jOQygzyBAAABAjxYOh732xvNTp06puLhYZ8+e1euvv67S0lIdP348ur8jIyND6enp1WlpaZsyMzNXfvKR/yjWTzbFeQRA30KAAACAXsGyLNXW1up73/ue9uzZowsXLkiS3G63hg8frunTpx9ftmzZNzIzM1e2L3y8Xdoe50cM9E0ECAAA6NHcbrdp7/04efKkGhsbJV1ajpWRkaG77777F1lZWStGjRq1L3jHN1rb9VqcHzHQtxEgAACgR2tvbx8oSaFQSD6fT2PGjNHEiRPbb7zxxk2zZ8/+xagvv1Cg/7dbwXg/UACSCBAAANDDuVyusH33x4wZM8zFixc/c9dddz11ft6XTb1eH++HB6ALAgQAAPRo48aNK/67v/u7ksmTJxfk5OT8xnXvt5vPs7EcuGoZsbeHIn4qxiyJ90MAAKDHMv/7qZHuZd9pjvfjQPeb0rg63g8BfyYCBAAAAIBjXPF+AAAAAAD6DgIEAAAAgGMIEAAAAACOIUAAAAAAOIYAAQAAAOAYAgQAAACAYwgQAAAAAI4hQAAAAAA4hgABAAAA4BgCBAAAAIBjCBAAAAAAjiFAAAAAADiGAAEAAADgGAIEAAAAgGMIEAAAAACOIUAAAAAAOIYAAQAAAOAYAgQAAACAYwgQAAAAAI4hQAAAAAA4hgABAAAA4BgCBAAAAIBjCBAAAAAAjiFAAAAAADiGAAEAAADgGAIEAAAAgGMIEAAAAACOIUAAAAAAOIYAAQAAAOAYAgQAAACAYwgQAAAAAI4hQAAAAAA4hgABAAAA4BgCBAAAAIBjCBAAAAAAjiFAAAAAADiGAAEAAADgGAIEAAAAgGMIEAAAAACOIUAAAAAAOIYAAQAAAOAYAgQAAACAYwgQAAAAAI4hQAAAAAA4hgABAAAA4BgCBAAAAIBjCBAAAAAAjiFAAAAAADiGAAEAAADgGAIEAAAAgGMIEAAAAACOIUAAAAAAOIYAAQAAAOAYAgQAAACAYwgQAAAAAI4hQAAAAAA4hgABAAAA4BgCBAAAAIBjCBAAAAAAjiFAAAAAADiGAAEAAADgGAIEAAAAgGMIEAAAAACOIUAAAAAAOIYAAQAAAOAYAgQAAACAYwgQAAAAAI4hQAAAAAA4hgABAAAA4BgCBAAAAIBjCBAAAAAAjiFAAAAAADiGAAEAAADgGAIEAAAAgGMIEAAAAACOIUAAAAAAOIYAAQAAAOAYAgQAAACAYwgQAAAAAI4hQAAAAAA4hgABAAAA4BgCBAAAAIBjCBAAAAAAjiFAAAAAADiGAAEAAADgGAIEAAAAgGMIEAAAAACOIUAAAAAAOIYAAQAAAOAYAgQAAACAYwgQAAAAAI4hQAAAAAA4hgABAAAA4BgCBAAAAIBjCBAAAAAAjiFAAAAAADiGAAEAAADgGAIEAAAAgGMIEAAAAACOIUAAAAAAOIYAAQAAAOAYAgQAAACAYwgQAAAAAI4hQAAAAAA4hgABAAAA4BgCBAAAAIBjCBAAAAAAjiFAAAAAADiGAAEAAADgGAIEAAAAgGMIEAAAAACOIUAAAAAAOIYAAQAAAOAYAgQAAACAYwgQAAAAAI4hQAAAAAA4hgABAAAA4BgCBAAAAIBjCBAAAAAAjiFAAAAAADiGAAEAAADgGAIEAAAAgGMIEAAAAACOIUAAAAAAOIYAAQAAAOAYAgQAAACAY/4/7Gv5sAPsRHAAAAAASUVORK5CYII=;rotation=-90;" vertex="1" parent="1">
                    <mxGeometry x="444.31" y="263.31" width="103.22" height="44.13" as="geometry"/>
                </mxCell>
                <mxCell id="10" value="" style="shape=image;verticalLabelPosition=bottom;labelBackgroundColor=default;verticalAlign=top;aspect=fixed;imageAspect=0;image=data:image/png,iVBORw0KGgoAAAANSUhEUgAAAyAAAAFWCAYAAACRlPmdAAABHGlDQ1BpY2MAACiRY2BgMnB0cXJlEmBgyM0rKQpyd1KIiIxSYD/PwMbAzAAGicnFBY4BAT4gdl5+XioDBvh2jYERRF/WBZmFKY8XcCUXFJUA6T9AbJSSWpzMwMBoAGRnl5cUAMUZ5wDZIknZYPYGELsoJMgZyD4CZPOlQ9hXQOwkCPsJiF0E9ASQ/QWkPh3MZuIAmwNhy4DYJakVIHsZnPMLKosy0zNKFAwtLS0VHFPyk1IVgiuLS1JzixU885LziwryixJLUlOAaiHuAwNBiEJQiGkANVpokuhvggAUDxDW50Bw+DKKnUGIIUByaVEZlMnIZEyYjzBjjgQDg/9SBgaWPwgxk14GhgU6DAz8UxFiaoYMDAL6DAz75gAAwMZP/aCJEEUAAAAEc0JJVAgICAh8CGSIAAAgAElEQVR4nO3de2CU5YHv8d87M5lJIkgRqOUSQAgXgwETEiIQUC4CwSiiWGt37bptV3fdc7qttdvWdWsvbmv3uO22bt32tB5dtbbQRQETgsgtkHAJEMjkCgkhRG4BJEIgyVzeec8f9B2HiLXdmndI8v38k5CEdp5EkvnmuRmWZQkAAAAAnOCK9wMAAAAA0HcQIAAAAAAcQ4AAAAAAcAwBAgAAAMAxBAgAAAAAxxAgAAAAABxDgAAAAABwDAECAAAAwDEECAAAAADHECAAAAAAHEOAAAAAAHAMAQIAAADAMQQIAAAAAMcQIAAAAAAcQ4AAAAAAcAwBAgAAAMAxBAgAAAAAxxAgAAAAABxDgAAAAABwDAECAAAAwDEECAAAAADHECAAAAAAHEOAAAAAAHAMAQIAAADAMQQIAAAAAMcQIAAAAAAcQ4AAAAAAcAwBAgAAAMAxBAgAAAAAxxAgAAAAABxDgAAAAABwDAECAAAAwDEECAAAAADHECAAAAAAHEOAAAAAAHAMAQIAAADAMQQIAAAAAMcQIAAAAAAcQ4AAAAAAcAwBAgAAAMAxBAgAAAAAxxAgAAAAABxDgAAAAABwDAECAAAAwDEECAAAAADHECAAAAAAHEOAAAAAAHAMAQIAAADAMQQIAAAAAMcQIAAAAAAcQ4AAAAAAcAwBAgAAAMAxBAgAAAAAxxAgAAAAABxDgAAAAABwDAECAAAAwDEECAAAAADHECAAAAAAHEOAAAAAAHAMAQIAAADAMQQIAAAAAMcQIAAAAAAcQ4AAAAAAcAwBAgAAAMAxBAgAAAAAxxAgAAAAABxDgAAAAABwDAECAAAAwDEECAAAAADHECAAAAAAHEOAAAAAAHAMAQIAAADAMQQIAAAAAMcQIAAAAAAcQ4AAAAAAcAwBAgAAAMAxBAgAAAAAxxAgAAAAABxDgAAAAABwDAECAAAAwDEECAAAAADHECAAAAAAHEOAAAAAAHAMAQIAAADAMQQIAAAAAMcQIAAAAAAcQ4AAAAAAcAwBAgAAAMAxBAgAAAAAxxAgAAAAABxDgAAAAABwDAECAAAAwDEECAAAAADHECAAAAAAHEOAAAAAAHAMAQIAAADAMQQIAAAAAMcQIAAAAAAcQ4AAAAAAcAwBAgAAAMAxBAgAAAAAxxAgAAAAABzjifcDwCUVY5bE+yEAANAjGau+d311dXVeZmbmys68f2yL9+NB95rSuDreDwF/JmZAAABAj+b3+/OffvrpFz//+c+fX/PXWb9qe/lrk+P9mAB8OGZAAABAj9bW1vapmpoaSdKFCxe+4Pf78xY+ceez48ePLx7w0L+Vx/nhAeiCAAEAAD1aQkJCu2EYsixLdXV18vv9w1auXPmjCRMm6M5ld66+7777Hvfe/3RDvB8ngEtYggUAAHq0SCTiTkhIkNfrVUJCgjwejwzDUENDg15++eUlX/rSl+p/PHtg1e4n7vxK/w0/dsf78QJ9HTMgAACgRzNN0xcMBuVyuTR58mQtWrRIjY2NKisrU1NTk86cOaPy8vJJJSUlP9q3b989c/71wedSU1NLjHueOh7vxw70RQQIAADo0ZKSklpdLpcsy1JaWpqeeOIJBYNBLV++XMuXL9fevXt17tw5HTlyRC+88ELuiy++mDt9+nQteGTBc/n5+d8N3/nEmXiPAehLCBAAANDjRSKR6MukpCQlJSXpjjvuUEZGhhobG7V7924VFxfL7/ero6NDJSUlOnLkyP/eunXrFyYtm/R2dnb28vFff/U3cR4G0CcQIAAAoEczDCP60rIsdXZ2SpKGDBmi4cOHKysrS7NmzdLMmTNVWFiouro6HThwQMeOHdOhQ4eS33rrrSWZmZlLFn9u8YLZs2f/IiUlxd++8PH2eI4J6M0IEAAA0CtYliWPxyOfzyfDMBQIBKJvHzp0qO644w7Nnj1bp0+f1tq1a/Xqq6+qsrJS4XBYu3fvVmVl5UMvvPDCQ5mZma33fvveb0759spfxHlIQK9EgAAAgF7HsiyFw2ElJCTINE3Zp2QNGjRIAwYM0D333KO0tDQ1NTWprKxMpaWlOnLkiI4ePaqjR48ObGho+PnM+TO/MHbs2J05OTmvDPz8j3fHe0xAb0GAAACAXscwDLlcLrlcLkUiEYXDYVmWFf3z6NGjNXr0aEnS3Llz9eabb2rbtm1qbGxUS0uL6urqVFNTky0pOy8v7+H7n7r/sQkTJmxK+uwP6uI6MKAXIEAAAECvZFmWJMnjufR0xzTNaJjYwuGwRo8erUceeUSf+9znVFVVpYKCAq1du1aNjY0KBoNat26db+fOnT8bMWKEsudk+x944IG/H/LwcyVxGRTQCxAgAACgV7IsS5FIJBocbvelOwhdLpc6OjqUlJQUjROPx6N+/fppzpw5SklJ0W233aby8nJVVVWprKxMR48eVWtrq+rr6yfX1NRsy1iUUZKWlvb2Lbfc8krCp793OG6DBHogAgQAAPRKhmHIMAxFIhEZhiHTNKNLsJKSkqJLs7xer8LhsAKBgPr166fU1FSNHTtWCxcuVFVVlQoLC7Vp0ybV19frvffe0+7du7Vz587clJSU3FmzZj246DvLns3Ozn4tsPjrbfEeM9ATECAAAKBXsgPEPqbXnu2QFN0PYseHvUldev9OEa/XqylTpiglJUXLli1TTU2NioqKtGbNGp0+fVrvvPOOXn/99dTt27f/fNSoUT/PWJKx/q677nrqui/8+07nRwv0HAQIAADolezwsCwruh/E5XJF7wuxX7rdbhmGoXA4rHA4rMTERAWDQVmWJZ/Pp8GDB2vIkCEaO3asRowYoVmzZqmmpka7d+/Wnj171NTUpKamJtXV1S2or6/Pnfrg1JVpaWlv33TTTUXcsg58EAECAAB6PZfLFY2Q2FkR+6V0aYbEniXxer2yLEumaV62mT0nJ0c5OTnq6OhQcXGxVq1apV27dunIkSM6deqUCgsLk9etW/fgkCFDHvzLv/zLgkW//NIPB//NT9mwDsQgQAAAAD6EHSt2hNgvExMTlZubqylTpqilpUW7du1SYWGhtm/frnfffVetra362c9+ll9QUJCflpHWkpub+1JeXt6/sE8EIEAAAACuKHamxF7GZe8PMQxD/fr1U79+/XT99ddr+PDhSktL065du1RbW6u9e/eqrq5OBw8eVF1d3fW7d+/+ek1Nze0Zjy98/YYbbtg9ceLEjefnfdmM5/iAeCFAAAAAPkLsUq3YPSX2SVpDhgzRkCFDNG3aNJ09e1Y7duzQa6+9pp07d+rs2bNqaWnRr371q0yXy5WZnZ2tRYsWvZS/4p+/yxG+6IsIEAAAgI/Qdf+IYRgKhUIyDCN6elY4HJbb7dbQoUM1b948ZWRkqKmpSbt27dK6detUWlqqcDisiooK1dfXP7R+/fqHxs8eXz1r1qwX5s6d+1NmRNBXECAAAAB/QGx8xEpISIhuUrdvWI9EIjJNU/3799eAAQM0evRoTZkyRRMnTtS0adNUX1+vPXv26OTJk9qxY4fKysomlZWV/aiysnLR9B989tWxY8eWMCuC3o4AAQAA+AO6hockBQIB+Xw+ud1uRSIRhUKh6Cla9oWH0qVZkU984hPKz8/X3XffraNHj2rFihUqKCjQvn379N5776mhoUH19fULfv7zny/Izs7WXz3xV49lf//NHzs9TsApBAgAAMCfyOfzSbr8QkOby+WKBok9M2IfAzxs2DA9+OCDmj9/vurq6rRv3z69+eabqq6uVjgcVllZmY4dO/ajMWPG/CgzM3P13Llzfzr00f/cFK9xAt2BAAEAAPgfutLsiGEYSkhIkCS53W6Zphk9Pcvtdkc3rKenpysrK0sTJ07Ujh07VFtbq0OHDunw4cM6fPiwSktLl+zYsWNJ3hfznp86derKlJSUfaH8b7Y6OkCgGxAgAAAA3cSeAYn9s3Tp9CzDMDR69GiNGjVK9913nw4cOKA33nhDRUVF2rt3rzo7O1VSUqLt27c/OmzYsEdnz57dcO+zf/WNsY//18p4jQf4OBAgAAAAHzN7Y7p0KTrcbnd0M7uky6JEkpKTk5WWlqaBAwdq4cKFqq6u1s6dO1VcXKzDhw/r6NGjWrNmTWpNTc1/j88e35yRkbF62rRprw364k92Ojow4GNAgAAAAHzMPmxpli0QCET3iFiWJdM05fP5NHr0aI0ePVozZ87U9OnTlZaWpu3bt6uhoUHvvPOO9u/fr/3794984403/vd9992XN+eJO5+/8cYbN/Z78F/9To4P+HMQIAAAAA6zN7Gb5qWrP9xu9wc+Zvz48UpNTdXDDz8sv9+vV199VYWFhWppaVEkEtFrr72WunLlyh+lpqZqzh1ziu+7777HBjz0b+WODgT4HyBAAAAAutGV7hGxj+q1wyMcDkc3qtvLs+xI8Xg8mjJlij71qU9p4cKFqq+v186dO1VUVKRgMKjq6mo1NTXdWllZuXfC7RN2Z2ZmrpwxY8ZLkSVPtjg5TuCPRYAAAAB0oystx3K5XJe93eP54FOyQCCgSCQij8ej/v37q3///kpNTVVnZ6eysrKUkpKihoYGNTQ06MiRI9q6dauKi4uzR44cmX3HHXfkz/7+A/83IyNjVWfeP7Z16wCBPxEBAgAA4LDY+Og6QxKJRKJ3i9hvC4VCcrvdcrlcSkxMVG5urnJycnT06FHt27dPBQUF2rBhg06dOqXm5ma9+OKLuatWrcodM2aM5n9u/kt33333Pxn3PHXc+ZECH0SAAAAAxFHXGRJ7CZa9QV1S9BStcDgc/Zjk5GRNmDBBw4YN05gxY5SXl6fq6mpt27ZNO3bs0IkTJ3Tq1CkdOnToof379y+5+XMZq1NTU0tmzJjxUtv8r5jOjhJ4HwECAABwlbIjxDCMy4LE5XIpHA7LNE3169dP06ZNU3Z2to4fP64ZM2Zo1apVqqioUFNTk959912tXr164OrVqx8aN27cQ5/+9Kfnzfnll54fM2bMjvPzvkyIwHEECAAAwFUsdobEfj0cDkeXZMXeNzJ8+HANHDhQ06dP18mTJ7Vt2za9/PLL2rt3r0zTVGNjo37yk588sHz58gcmT57cMu/xhc/NmTPn+eAd3+CGdTiGAAEAAOhh3G73ZXeIWJYV3bDu8/mUlJSka6+9Vtdff70mTJigffv2qaqqSjt37tTBgwftzevX19TUPL1///4lE/5+dnFaWtrbw/7+5+vjPTb0fgQIAABADxO7Yd2OkViWZcntdmvw4MG69dZbNXv2bJ08eVKFhYUqKChQQ0ODjh8/roMHD6quri5bUnZOTs7jn/3yZ7+bk5Pzm8QHvl8Xh2GhjyBAAAAAegh7D4hpmvJ4PJctwQoGg3K5XNH9IZKUkJAQ3dQ+dOhQfeYzn1F+fr5qamq0fft2vfnmm/L7/QoGgyovL1dTU9O3hg4d+q2Zi2cWT58+/ZWb/nnFC/EZKXozAgQAAKCHsGPDvjfEPrJXkrxer6RLkWK/Ll2KFXuZVv/+/XXttddq2LBhGjt2rMaNG6fq6mrV1dWprKxM77zzjlpbW1VZWXlrWVnZrbPvmX33lClTCsaNG1ec9NkfMCuCjwUBAgAA0MPYJ2PZN6lHIpHoHhB7P4jL5YreuB4bJ/ZMyahRo3TDDTfIsixVV1dr3bp1Wrdunfx+v86dO6e9e/dq9+7d+QMHDszPzc1tu+db93wjNzf3hYsLvhqI59jR8xEgAAAAPUzsyVeSokuv7Ndj7w+R3l+6JV1altX1fystLU1Dhw7V/PnzdeLECRUVFWnNmjVqbm5Wa2urioqK+tfU1PxszJgxP0u7K239vHnznhv5D78q6PaBolciQAAAAPoYwzAUiUQUCoUkXYqSQYMGadCgQUpPT1dKSoomTZqkmpoaVVVVqbKyUo2NjTp06JA2bNiwoLKycsHCv13440mTJr09ZsyYnRzjiz8FAQIAANDLdD0VqyvTNGUYRnQ2pOtdI+PGjdNNN90k0zRVVlamX//61youLtaxY8d04cIFbdq0SVu3bv3KoEGDvrJgwYK6h371D3896Is/2dmtg0KvQYAAAAD0MbGnZ1mWpXA4HF2mZRiGfD5f9GMzMjI0evRoPfjggyovL9eWLVv09ttvq7W1VS0tLVqzZs3EioqKHaPTR7dOmzZtxeLFi7/vuvfbzXEZGHoEAgQAAKCP6TpD0vUuEXujeiAQkM/n09ChQzV06FClpaVp6tSpys7OVmVlpaqrq3Xw4EH5/X75/f6B+/fvf8Tv9+ctfHLJsyNHjtw35OHnSpweG65+BAgAAEAfE4lEJH1wJiQSiciyLCUkJMgwjOhxv+FwWIZhqH///srKytK0adN0/PhxlZeX64033tCGDRt07NgxNTc36+TJkyNXrFjx05tvvln5f5H/m4ULFz7T/3P/xx+3weKqQ4AAAAD0MfaJWbGnY0kfPDXLPu7X4/FEj/q1j/YdNmyYBgwYoDFjxmjp0qU6cOCA1q5dq02bNskwDPn9fh09evSBzZs3PzB50eSSzMzM16dPn/5K+M4nzjg7WlxtCBAAAIA+yI4Lmz37YRiGDMOIblSX3l+yFYlE5Ha71dHRIY/Ho2uuuUZpaWlKS0vTrFmzNHnyZGVnZ6uqqkoHDx5UY2OjSktLtXPnztwbbrghd/78+Z+e88xf/HT8+PHFxj1PHY/LwBF3BAgAAOjRTNN0S4pevPdRJ0Dhkq6fJ3tWxGbPhsS+3/6YpKQkSZfPoPTv319z587VnDlz1NTUpJKSEv32t79VSUmJLl68qEOHDqm5ufmWX//617ekp6dr6aNLn83Pz/9uYPHX27pjfLh6ESAAAKBHc7lcpn35nh0hXZ88o/sZhhGdQUlNTVX//v2Vlpam5uZm7d27Vxs2bFBVVZXa2tq0a9cuHT169PEtW7Y8OvGeiZtuu+2251O+9MuieI8BziBAriLW698Z1t7ePtDtdpuGYYQty/J0XZv5cTNN0+vxeIJer7fd7XYHfn8xkTsSiXgsy5Lb7Q536wOIM5/P1/b7H1ym/TbLsqI/tQzDMK/8N3uGUCiULEmGYYTtHwyWZXm8Xm/7hdsfC8T78QHAx8Htdpv2pmrDMIiPOLJ/1pimqeuuu07XX3+9pk2bpuzsbN10003auHGjqqqq1NzcrOPHj6u5uTm5qKgof/fu3fm3f/72X2RlZa0YOXLkvlD+N7nYsBcjQK4SdT/47IO/+trXXvb7/TJNM3o7qX36RHcxTVOJiYnq16+fkpKS5PV6L5uCtb+h9yaxU85DhgyR2+2Wx+O57BQQe/1rdwdgd/N6vQqHw4pEItHxuN1u9evXr+7axSktHo+nV0dIJBLxuFyu8O+fkASTkpLarrnmmjMJCQkBqecH5h/DMAwlJSW1DhgwoCUpKanV/sVGb1ii8lH/Pr1eb3tSUlJbv379zvh8vvOSZJqmLxKJ2Mt1evTX3zAMMxKJuH///cr8/S+P3G632/R6ve2RJU+2xPsxOuXChQuDk5KS1NHRIdPs0V/WHiv2Z6Z9y7p9yaEkDR8+XJ/+9Ke1YMECHT16VJs3b9aqVatUWlqqSCSirVu3au/evY8MGTLkkZycnObb/+muf587d+5Pz8/7Ml/QXogAuUpcuHBh8LvvvqtTp05Jev83OOFw905AuFwutbe3q7W19bLj9/oKn88nt9stt9ste/q+NwVI7NfT7XZH/+zz+SYmJydP7A1PQv8QezmG/Tnwer1KTEyU2+3u8V/bP4b9W0i3263k5OTLbjy2l6n0Zm63WwkJCfL5fB848Sf2v4ueyn6SZ3+/sk8o+v24z1wz89pefdJQZ2fntddee+2ZhISE9qpf//qWzs5OeTye6IV6vf3729Wk60Z1y7KiXwv7Z2k4HFZCQoKGDBmiIUOGaPDgwZo6dapqamq0f/9+FRcX6/Dhw2pqatKxY8dGHjp06Edbtmx5OO1vbtmUk5PzCres9y4EyFXC5XKFY2cbDMOI/sPtTh82w9FbnoB/lECgV08AXCY2sC5evKjz5893e+DGW+yY+6LYf8P2E/DeOKv5P9Ebvr/9oTEYhjHYsqzBH/X3e7Lfj31YQkJCNDrC4bA6Ojp6/Nh6sit97j0ejzwejyzLUiAQUDAYVEpKilJSUnTrrbfq4MGDuuWWW7R161ZVVlbK7/drz549Ki8vn3jNNddMzMrKejT/f+X/cNq0aa9xn0jvQIBcJVwul3mlNavd/QPSPtc79jf/9v9vT//h/MeI/a1o1/H2ticoXZ949vb4kC4fc9cY6QtPULouh7Bft9/X2z8HH/Y17y3f37p+z46dCfljxtfTPwdut1umaSoUCkm69PXuuuwH3e/Dvo+Ew+HLLjGULn2NfD6ffD7fZRchjhs3TuPHj9fSpUu1ZcsWPfPMM9q1a5ck6eLFi9q+fbtKS0u/PmLEiK9/8W+++PwU6e8dGBq6EQFylcjIyFj56KOP+k6ePDkhEol4DMMIu91u0z5asLtYluUJBoPJnZ2d/UOhkNeyLI/L5er1z0ztH7znzp0bHolEJnU9+1y6/ElbT3WlJ5mRSESdnZ0KBAI9fnwfJWbjvSzLUjAYjK4R7w2B+VHswA4Gg7p48aKCwWB0+VVv8FFfv2AwqFAopEAgEP2a21FiL1XqySKRyAeWjtpL60KhkDo6OuL9ELuVvYQwISFBoVAouhzNXvrT3Xso8eFiDwKw/9u0g7GzszO6PFJSdJlobW2tGhoatGfPHp04cSIalNKl433HjBmjrKyskszMzJVxGxg+NvzrvEpYd/9zS5b043g/jr7mmvX/5jNN02uapkeKLj0LW5blkXr+bwiv9JupUCjkbWtru/7ChQuDe/r4PoplWR632x2QLp0I1t7e/on29vaBwWAw2TRNt9vt7tGbID7q62d//QOBQPL58+evb29vHxiJRNw9ffP1H6uzs7N/R0fHJy5evDgwHA77DMMI22OPPe2uJzMMw7Qsyx1z4IIZCoWSA4FA8unTp6+P+bh4PsxuYd/GnZSUpCNHjujAgQNyuVyOHODSl1xp1tiOithfcsXOaNiH6SQkJER/sWdHob0f0TRNnTt3Tq2traqpqdHy5ctVUFCgc+fOyeVyyev1asCAAUpJSdHcuXNXL1u27HHv/U83qOh5qXGh858IfKz4F4o+7eKCrwYk9Z2NIL/XT2rpF+8HAaCbDYz3A+h2yW89m2wYhllUVPTEV7/61W+FQiH5fL54P6xe5UrxeqUY6bqCwN6bYwehPeNhz0Du27dPBQUFKi0tVWNjo44fP65AICC3262BAwcqPz+/esGCBc9OmzbtNxdufyyg3z3tzIDhCAIEAAD0SO0LH2+XpBH/9pDf3guSkJDQJ/Y4xVPsPip7Sae9JC72HpCEhITo5vOOjg6dOHFCfr9fNTU1qqio0Pbt23Xs2DFZlqVrr71WM2bM0OTJk9enp6evS0tLW5/8F89UX9Bv4zZOdB8CBAAA9Gjnzp27XpISExNlmiYB8jH4sAM77PjoupcsdtmbaZryeDzRfVgXL16U3+/XmjVrtH79eh06dCgaKQMHDtSIESOUm5tbsnTp0ic/+ch/FGvNYUlrun2MiB8CBAAA9GiBQKC/pOgBG/jz/aGA63rCYjAYVDgcVmJiohISEqIbzg8cOKAtW7aopKREtbW1OnnypFpbW6OnYi1atChwzz33PDl58uSCxAe+X6d1/+HI2BB/BAgAAOjREhMT2+zTr/r3799rTnq7GtlhEgqF5HK55Ha7lZSUFH1/U1OTDhw4oBMnTqi0tFRbt25VY2NjNDpuuukmZWZmVqenpxdNnTp15XVf+PedUkFcxoL4IUAAAECPZhiGaZ/CFA6HFQwG5fV64/yoeo+u9+nYm8ylSzMgoVBInZ2dampq0tq1a1VYWKjS0tLo309MTNTw4cOVmZl5ZunSpU9Ofuq/f6Ft2yRti8dwcBUgQAAAQI8WCoWSY4+lJj7+fLGfz9jLLWPvm/F4PDp9+rQ2b96sjRs3qra2VocPH9bx48clXfo6TJkyRfn5+S/MnDnzpeHDh1cEFn+9LS4DwlWFAAEAAD2ax+MJxD5BZhP6Hxa7f+NKF3KGw2G5XK7LLgO0N5kHg0FduHBBjY2NamhokN/vV0FBgfbv3x/9uFGjRik9Pb1twoQJxdnZ2SsmfvO1V/TS3r535j0+FAECAADQi3UNMvv12PgIh8Nyu93R2+QlRU8UszeVRyIRvfPOO9qyZYvWrFmjHTt26PTp09F9IB6PR1OmTNH999//1Lx5854L3vGNVr1e7+xg0SMQIAAAAL1Q7DKqK80Kxd6d4vF4ZJqmQqGQLMuS1+uNBsq7776rrVu3qqysTAcPHlRlZaUOHz4cnSlJTU3VggULNuXm5v5q3Lhxpa57v90c/NHbzg0UPQ4BAgAA0MvExseVlqNFIpHopY32TEckEpHX65XL5VJnZ6fq6+vV0NCgqqoqbdq0SZs3b1Y4HJbP59PAgQOVmpqqsWPH1s2ePfuFaT8oeFYFR5wcInowAgQAAKCXio0P+zSr2NkQwzBkmmZ04344HNZ7772n4uJi/e53v9O2bduit5Xbp1+lpqbqzjvvXHnfffc95l72nWaVcowu/jQECAAAQC90pZkPO0BM04zu+fB6vers7NT+/fu1efNmHTx4UFVVVaqpqVEwGJTL5dLgwYN12223Nefm5r4wceLETUMefq5Ey78Th1GhNyBAAAAAehk7Pq60D8TeaB4KhXTmzBkdO3ZMfr9fhYWF2rp1q86cOSOXyyWfz6exY8fqxhtvPJORkbE6Ly/vGe/9TzdI7O/An4cAAQAA6IVil1xJ718iaBiGzp07p9raWq1cuVKFhYV65513FAgEohvTU1JSdNddd22aP3/+j0d9+YUCVeyVXtobz+GgFyFAAAAArlJ2PHSNCElXvPE9GAzK4/EoEokoGH81/awAAA8ASURBVAwqKSlJLpcr+v7q6mqVlJSotrZWFRUV8vv9Onv2rCTpuuuuU05OTuCWW255dcqUKW+OGTNmZ2TJky1OjBN9CwECAABwlYldLiVdeT9HQkJC9HX7SFw7SEzTVHJysiKRiE6dOqWWlhYdPHhQW7du1dq1a9XY2CjLspScnKzU1FSNHDlS6enp6xctWvTDoY/+5yZpryLODBV9EAECAABwlYndwxGJRD5wmpX90r40MBwOyzAM+Xw+dXR0KCkpSZFIRPv379fatWtVWlqq2tpanThxQsFgUJI0aNAgzZw5szU/P//7s2fP/kVn3j+2ac1/OjxS9EUECAAAwFUkdrmV/TJ2NsT+GNM0o8uw7Ps7JOns2bPavXu3ysvLVVtbqx07dujYsWOSJJ/Pp5kzZ2rGjBmrx48fX5yVlbXcuOep450/4ChdOIcAAQAAuAp82IlVXWdD7EsEXS5X9BLBQCCgM2fOqL6+Xtu2bdPq1atVUVERnT257rrrlJqaqvHjx9fNnz//uZu/8/rz0gFJb8ZptOjLCBAAAIA4i40PSZdtHLcjw+VyRYPEnvnw+Xw6evSoCgoKtH79eh08eFDHjx9XW1ubIpGIPB6PZs2apcWLFz87Y8aMl675yx9Wq/R1p4cHXIYAAQAAuMqYpinp/TCx93rYbzt//rwqKiqiFwbu3r1b1dXVCgaDcrvdSktLU1ZWln/SpEnrJ0+eXPDJR/6jWM9vi8tYgK4IEAAAgDjqOvshKTrbYb/fPla3tbVVra2t2rBhg1avXq2dO3eqvb1dhmEoKSlJKSkpSk9PP7N48eIfzp0797kLtz8WkLY6PSTgDyJAAAAAukEkEonu0zAMI7qsyt7fYb8/dnN5KBSKnm4Vuw+ktbVVb731lgoLC9XU1KSGhga1trZGZzwmTpyoJUuWrFiwYMGzw4YNq25f+Hj7BTaW4ypFgAAAAHzMTNOU2+2WJLnd7uipVbF7OewgCYVCCofD8nq90bs9wuGw2tvb1djYqMrKSlVUVKi0tFQVFRXq6OiQ2+3Wpz71KU2ePDlw8803r05PTy/Kyspa0b7w8fb2uI0a+OMQIAAAAN0gEolEZzFcLlc0SGyWZcmyLCUkJERnPCzL0sWLF3X69Glt375dv/vd71RSUqLW1lZFIhH5fD4NHjxYEyZM0Lx58165//77/yGU/81W/bZa7fptnEYK/GkIEAAAgI+ZHRux+zvsI3SlS7Me0qW9Hj6fT4Zh6MKFC9q9e7c2btyo0tJSnTp1SsePH9f58+dlGIZSUlK0YMGC8ry8vB9OmjSpKLD4622hV/Y7Pzjgz0SAAAAAfAxiYyMQCCgxMTG65Mo0TYXDYfl8Pknvn2oVCoVUU1Oj+vp6NTQ0aNu2bdqwYYMCgYDC4bCSk5N1yy23KDMzs3jSpElv5+TkvOJe9p3mQFxGCHw8CBAAAIA/U9eTrBITEy/7s2EY0fgIBoOyLEstLS3y+/0qLCzUpk2b1NjYGI0UwzCUlpamhQsXFi1duvTJa//q2XKtfUfSOqeGBHQbAgQAAOBjFg6HFYlEFAqFlJycLJfLJcuyFAwGdeDAAW3cuFHl5eWqra1VQ0ODzp07J0kaPHiwcnNzz+Tn538/JSWl/Pq//VmxVj0b59EAHy8CBAAA4GPmdrvl8Xiip1odPXpUhw8fVn19vTZv3qx169bpzJkzMgxDXq9X6enpSk9Pbxg/fnxJXl7ev/g+8y8NcR4C0G0IEAAAgCuIRCLReziuxDTN6JG6sXd2hEIhJSQkRDeaV1dXa/ny5SosLNTBgwcVCFzawZGQkKDBgwdrxowZLQ888MCXUr/28grtKJf+q9yxMQLxQIAAAIA+K3bvxoeFRtePtcMj9m12gEiXwuLw4cPatm2bysrKVFVVpdraWp0+fVqWZcnr9WrevHmB6dOnvzp16tQVI0eOLDfv+qcz3TE+4GpEgAAAAOjyiLDZf7bv9LCXVtmzI/bHuFwunTp1So2NjTp58qS2b9+ut99+W1VVVTJNU0lJSRo5cqQmTJhg3njjjRtvu+2252947MXVenGPTMdHCsQXAQIAAPose/nUh73PNM3o0qrYWQ/7denSkbvNzc3auHGj3njjDZWXl+v8+fMKBoOSpGuuuUY5OTn6zGc+87W5c+c+d+H2xwJac7j7BwdcpQgQAADQp11p6VUgEJDH45Hb7VYkElEgEJDL5bps9uPYsWPat2+fysvLVVlZqYqKCh0+fDgaNBkZGVq4cOHKjIyMlWPHjt3pue+7hy/8oMDp4QFXHQIEAAD0eV1nQew7OyzLkmVZl91W3tLSohMnTmjLli1atWqV9u/fL9M05fF4NHz4cA0dOlTjx49vuP32239883def17La+IxJOCqRYAAAIA+KTY6ugZIKBSSYRhyu91yu92SpJMnT2rt2rVau3atysvLdfbsWbW1tSkSiSghIUETJ07UsmXLXsjLy3vGe//TDdr+uqPjAXoKAgQAAPQ5sadXxb60eb1eSdJ7772niooK7dmzRzU1Ndq7d6/8fn/074wePVq33XZbdVZW1ooJEyZsGvLwcyV6aa+DIwF6HgIEAAD0SpFI5LLX7b0eXY/Ojd0DYlmWIpGITpw4oZMnT6q8vFzLly/X5s2bZVmWTNPUgAED9MlPflJpaWmtubm5L+Tl5f0wfOcTZ6T1zg4Q6KEIEAAA0OPFnmYVezyu/TL2GF07RuwTrqRLgeL1etXW1qatW7fqrbfe0o4dO3TkyBF1dHRIunT/x/jx47V06dKVc+fOfW7cuHEl5+d92Qw/vy0OIwZ6LgIEAAD0OuFwWOFwWNL7Mx2RSOQDIeLxeBQMBuX3++X3+1VfX699+/Zp27Ztam9vlyQNHDhQ8+bNa50yZUpBRkbG6tTU1JLIkidbzsdzgEAPRoAAAIAeL3ZZlWVZ8ng8l51k5XK5LrvPIxwOq62tTS0tLdq7d6+Kioq0ZcsWHTt2TJKUmJioESNGaMSIEZozZ86K+++//yta+q3jerVCkQ99FAD+GAQIAADo0bqeZhWJROR2uxUIBBQOh2VZlpKTky/b61FaWqr169errKxMBw4c0NmzZxUIBCRJgwYNUl5eXt2yZcu+kZ6eXtA2/yumfvstx8cF9FYECAAA6FUMw1BHR4fcbreSk5Ojbz9w4IAqKirU3NysPXv2aOPGjXr33XdlWZYSExM1depUTZs2bdNNN91UlJ2dvcJ177eb2+I4DqC3IkAAAECPFjuz4XK55HK5lJSUpEAgoM7OTp06dUoNDQ0qKipSQUGB6urqoh8/ePBgjRo1Sunp6dX33nvv11K+9MsiFRyRVBiHkQB9AwECAAB6NMMwTDtCXC6XpEsnVlVVVWn79u3aunWrDh06pKamJr333nsyDENer1eLFi1qnTNnzvPTp09/yfeZf2lQ8S/jOQygzyBAAABAjxYOh732xvNTp06puLhYZ8+e1euvv67S0lIdP348ur8jIyND6enp1WlpaZsyMzNXfvKR/yjWTzbFeQRA30KAAACAXsGyLNXW1up73/ue9uzZowsXLkiS3G63hg8frunTpx9ftmzZNzIzM1e2L3y8Xdoe50cM9E0ECAAA6NHcbrdp7/04efKkGhsbJV1ajpWRkaG77777F1lZWStGjRq1L3jHN1rb9VqcHzHQtxEgAACgR2tvbx8oSaFQSD6fT2PGjNHEiRPbb7zxxk2zZ8/+xagvv1Cg/7dbwXg/UACSCBAAANDDuVyusH33x4wZM8zFixc/c9dddz11ft6XTb1eH++HB6ALAgQAAPRo48aNK/67v/u7ksmTJxfk5OT8xnXvt5vPs7EcuGoZsbeHIn4qxiyJ90MAAKDHMv/7qZHuZd9pjvfjQPeb0rg63g8BfyYCBAAAAIBjXPF+AAAAAAD6DgIEAAAAgGMIEAAAAACOIUAAAAAAOIYAAQAAAOAYAgQAAACAYwgQAAAAAI4hQAAAAAA4hgABAAAA4BgCBAAAAIBjCBAAAAAAjiFAAAAAADiGAAEAAADgGAIEAAAAgGMIEAAAAACOIUAAAAAAOIYAAQAAAOAYAgQAAACAYwgQAAAAAI4hQAAAAAA4hgABAAAA4BgCBAAAAIBjCBAAAAAAjiFAAAAAADiGAAEAAADgGAIEAAAAgGMIEAAAAACOIUAAAAAAOIYAAQAAAOAYAgQAAACAYwgQAAAAAI4hQAAAAAA4hgABAAAA4BgCBAAAAIBjCBAAAAAAjiFAAAAAADiGAAEAAADgGAIEAAAAgGMIEAAAAACOIUAAAAAAOIYAAQAAAOAYAgQAAACAYwgQAAAAAI4hQAAAAAA4hgABAAAA4BgCBAAAAIBjCBAAAAAAjiFAAAAAADiGAAEAAADgGAIEAAAAgGMIEAAAAACOIUAAAAAAOIYAAQAAAOAYAgQAAACAYwgQAAAAAI4hQAAAAAA4hgABAAAA4BgCBAAAAIBjCBAAAAAAjiFAAAAAADiGAAEAAADgGAIEAAAAgGMIEAAAAACOIUAAAAAAOIYAAQAAAOAYAgQAAACAYwgQAAAAAI4hQAAAAAA4hgABAAAA4BgCBAAAAIBjCBAAAAAAjiFAAAAAADiGAAEAAADgGAIEAAAAgGMIEAAAAACOIUAAAAAAOIYAAQAAAOAYAgQAAACAYwgQAAAAAI4hQAAAAAA4hgABAAAA4BgCBAAAAIBjCBAAAAAAjiFAAAAAADiGAAEAAADgGAIEAAAAgGMIEAAAAACOIUAAAAAAOIYAAQAAAOAYAgQAAACAYwgQAAAAAI4hQAAAAAA4hgABAAAA4BgCBAAAAIBjCBAAAAAAjiFAAAAAADiGAAEAAADgGAIEAAAAgGMIEAAAAACOIUAAAAAAOIYAAQAAAOAYAgQAAACAYwgQAAAAAI4hQAAAAAA4hgABAAAA4BgCBAAAAIBjCBAAAAAAjiFAAAAAADiGAAEAAADgGAIEAAAAgGMIEAAAAACOIUAAAAAAOIYAAQAAAOAYAgQAAACAYwgQAAAAAI4hQAAAAAA4hgABAAAA4BgCBAAAAIBjCBAAAAAAjiFAAAAAADiGAAEAAADgGAIEAAAAgGMIEAAAAACOIUAAAAAAOIYAAQAAAOAYAgQAAACAY/4/7Gv5sAPsRHAAAAAASUVORK5CYII=;rotation=-90;" vertex="1" parent="1">
                    <mxGeometry x="670" y="263.31" width="103.22" height="44.13" as="geometry"/>
                </mxCell>
            </root>
        </mxGraphModel>
    </diagram>
</mxfile>